<svg width="40" height="40" viewBox="0 0 40 40" fill="none" xmlns="http://www.w3.org/2000/svg">
<circle cx="20" cy="20" r="20" fill="#2B3540"/>
<path d="M20.7657 12.4303L22.6897 16.4613C22.7979 16.6893 23.0087 16.8474 23.2504 16.8834L27.5528 17.5304C27.6904 17.5513 27.8196 17.6116 27.9258 17.7045C28.0321 17.7973 28.1111 17.919 28.154 18.0559C28.197 18.1927 28.2021 18.3392 28.1688 18.4789C28.1355 18.6186 28.0651 18.7458 27.9657 18.8464L24.8525 21.9844C24.7659 22.0718 24.7012 22.1796 24.6638 22.2986C24.6264 22.4175 24.6175 22.5441 24.6378 22.6674L25.3726 27.0985C25.396 27.2404 25.3805 27.3862 25.3279 27.5195C25.2754 27.6528 25.1879 27.7682 25.0753 27.8528C24.9626 27.9373 24.8294 27.9876 24.6906 27.998C24.5518 28.0084 24.413 27.9784 24.2898 27.9115L20.4418 25.8195C20.3347 25.7614 20.2156 25.731 20.0947 25.731C19.9738 25.731 19.8547 25.7614 19.7476 25.8195L15.8996 27.9115C15.7764 27.9781 15.6377 28.0079 15.4991 27.9974C15.3604 27.9868 15.2274 27.9365 15.1149 27.852C15.0025 27.7675 14.9151 27.6522 14.8625 27.519C14.81 27.3859 14.7945 27.2402 14.8177 27.0985L15.5525 22.6674C15.5731 22.5441 15.5643 22.4175 15.5269 22.2984C15.4895 22.1794 15.4246 22.0716 15.3379 21.9844L12.2247 18.8464C12.1252 18.7458 12.0548 18.6184 12.0216 18.4787C11.9884 18.3389 11.9936 18.1924 12.0366 18.0555C12.0796 17.9186 12.1588 17.7969 12.2651 17.7041C12.3715 17.6114 12.5008 17.5512 12.6385 17.5304L16.9399 16.8834C17.0594 16.8652 17.1729 16.8173 17.2706 16.7438C17.3682 16.6703 17.4472 16.5734 17.5007 16.4613L19.4247 12.4303C19.4866 12.3011 19.5822 12.1923 19.7006 12.1163C19.8191 12.0403 19.9558 12 20.0952 12C20.2346 12 20.3712 12.0403 20.4897 12.1163C20.6082 12.1923 20.7038 12.3011 20.7657 12.4303V12.4303Z" fill="#FC7614"/>
</svg>
