<svg width="130" height="87" viewBox="0 0 130 87" fill="none" xmlns="http://www.w3.org/2000/svg">
<g clip-path="url(#clip0_2_2)">
<path d="M24.0741 75.516H24.0388C23.6065 75.4802 23.1756 75.4294 22.7468 75.3638C22.6323 75.3472 22.529 75.2857 22.4597 75.1927C22.3904 75.0997 22.3608 74.9829 22.3772 74.8679C22.3937 74.753 22.455 74.6493 22.5477 74.5798C22.6403 74.5102 22.7567 74.4804 22.8712 74.497C23.2884 74.5582 23.7057 74.6057 24.1254 74.6404C24.2399 74.645 24.3479 74.695 24.4256 74.7796C24.5034 74.8641 24.5445 74.9761 24.5399 75.0911C24.5353 75.206 24.4854 75.3144 24.4012 75.3925C24.317 75.4705 24.2054 75.5117 24.0909 75.5071L24.0733 75.5152L24.0741 75.516ZM28.3833 75.3509C28.2688 75.3594 28.1556 75.3219 28.0686 75.2467C27.9817 75.1715 27.928 75.0646 27.9195 74.9497C27.911 74.8348 27.9483 74.7211 28.0232 74.6338C28.0982 74.5465 28.2046 74.4926 28.3191 74.4841C28.7342 74.4186 29.1465 74.3364 29.5549 74.2376C29.6102 74.2246 29.6674 74.2227 29.7234 74.232C29.7793 74.2413 29.8329 74.2616 29.881 74.2918C29.9291 74.322 29.9708 74.3614 30.0037 74.4078C30.0365 74.4542 30.0599 74.5067 30.0725 74.5622C30.0986 74.6736 30.0798 74.7908 30.0201 74.8883C29.9604 74.9858 29.8647 75.0557 29.7539 75.0826C29.323 75.1865 28.8921 75.2727 28.4612 75.3428L28.3833 75.3509V75.3509ZM18.6438 74.294C18.5936 74.2938 18.5439 74.2848 18.4969 74.2674C18.0836 74.118 17.6755 73.9546 17.2731 73.7776C17.1727 73.7291 17.0948 73.6436 17.0556 73.5388C17.0165 73.4341 17.0191 73.3182 17.063 73.2154C17.1069 73.1125 17.1886 73.0307 17.2911 72.9868C17.3937 72.943 17.5091 72.9406 17.6134 72.9801C18.001 73.1493 18.4022 73.3056 18.7946 73.453C18.8905 73.4877 18.9711 73.5554 19.022 73.6441C19.0729 73.7328 19.091 73.8367 19.0729 73.9374C19.0548 74.0381 19.0018 74.1292 18.9233 74.1945C18.8447 74.2597 18.7457 74.295 18.6438 74.294V74.294ZM33.6973 73.6262C33.5991 73.6275 33.5034 73.5952 33.426 73.5345C33.3486 73.4739 33.294 73.3886 33.2714 73.2927C33.2488 73.1968 33.2594 73.096 33.3015 73.0069C33.3436 72.9179 33.4147 72.8459 33.5031 72.8029C33.8778 72.6208 34.2526 72.417 34.6185 72.2052C34.6675 72.1767 34.7216 72.1582 34.7777 72.1508C34.8339 72.1433 34.8909 72.147 34.9456 72.1617C35.0003 72.1763 35.0516 72.2017 35.0965 72.2362C35.1415 72.2708 35.1792 72.3139 35.2075 72.3631C35.2359 72.4123 35.2543 72.4666 35.2617 72.5229C35.2692 72.5792 35.2655 72.6365 35.2509 72.6914C35.2363 72.7463 35.211 72.7978 35.1766 72.8429C35.1422 72.888 35.0992 72.9259 35.0502 72.9543C34.6667 73.1759 34.2743 73.3877 33.8867 73.5827C33.8223 73.6142 33.7512 73.6292 33.6796 73.6262H33.6973V73.6262ZM13.6404 71.7798C13.5583 71.7811 13.4775 71.7587 13.4076 71.7154C13.0409 71.4818 12.675 71.2345 12.3163 70.9823C12.2698 70.95 12.2301 70.9087 12.1996 70.861C12.169 70.8132 12.148 70.7599 12.138 70.704C12.1279 70.6481 12.1289 70.5908 12.1409 70.5353C12.1529 70.4798 12.1757 70.4272 12.208 70.3806C12.2402 70.3339 12.2813 70.2941 12.3289 70.2634C12.3764 70.2327 12.4296 70.2117 12.4852 70.2016C12.5409 70.1915 12.598 70.1925 12.6533 70.2045C12.7086 70.2166 12.7609 70.2395 12.8074 70.2718C13.1573 70.5191 13.5104 70.7528 13.8683 70.9831C13.9461 71.0336 14.0058 71.1079 14.0384 71.195C14.0709 71.2821 14.0747 71.3774 14.0492 71.4668C14.0236 71.5562 13.9701 71.635 13.8964 71.6916C13.8228 71.7481 13.733 71.7793 13.6404 71.7806V71.7798ZM38.3339 70.5361C38.2714 70.5355 38.2097 70.5214 38.1532 70.4945C38.0966 70.4677 38.0466 70.4288 38.0065 70.3806C37.9323 70.293 37.8956 70.1795 37.9047 70.0649C37.9137 69.9503 37.9676 69.8439 38.0547 69.7692L38.1486 69.6693C38.4334 69.4228 38.7223 69.1666 39.0104 68.8984C39.052 68.8598 39.1008 68.8297 39.154 68.8101C39.2072 68.7904 39.2637 68.7814 39.3203 68.7837C39.377 68.7859 39.4326 68.7993 39.4841 68.8231C39.5355 68.847 39.5818 68.8807 39.6203 68.9225C39.6588 68.9643 39.6887 69.0133 39.7083 69.0667C39.7279 69.1201 39.7368 69.1768 39.7346 69.2336C39.7323 69.2905 39.719 69.3464 39.6952 69.398C39.6715 69.4497 39.6378 69.4961 39.5962 69.5348C39.2953 69.8127 39.0024 70.0769 38.7087 70.3282L38.61 70.4104C38.5362 70.4845 38.4381 70.5291 38.3339 70.5361V70.5361ZM9.18345 68.3691C9.07655 68.3688 8.97359 68.3286 8.89456 68.2563C8.57197 67.9583 8.25259 67.6546 7.94765 67.3509C7.87567 67.2687 7.83727 67.1622 7.84013 67.0528C7.84299 66.9434 7.88689 66.8392 7.96306 66.7609C8.03923 66.6826 8.14205 66.636 8.25093 66.6306C8.35982 66.6251 8.46674 66.6611 8.5503 66.7314C8.85203 67.0303 9.16259 67.3251 9.47715 67.5982C9.51935 67.6368 9.55351 67.6833 9.57767 67.7352C9.60182 67.7871 9.61549 67.8433 9.61787 67.9005C9.62026 67.9578 9.61132 68.0149 9.59158 68.0687C9.57183 68.1224 9.54167 68.1717 9.50283 68.2136C9.46372 68.261 9.41501 68.2994 9.35993 68.3264C9.30486 68.3533 9.24469 68.3682 9.18345 68.3699V68.3691ZM42.3294 66.5888C42.2458 66.5891 42.1639 66.5648 42.0937 66.5191C42.0236 66.4734 41.9682 66.4082 41.9343 66.3314C41.9004 66.2546 41.8896 66.1696 41.903 66.0867C41.9165 66.0038 41.9537 65.9267 42.0101 65.8646C42.2949 65.5481 42.5838 65.2283 42.8719 64.898C42.9093 64.8553 42.9547 64.8205 43.0055 64.7955C43.0564 64.7705 43.1116 64.7558 43.1681 64.7522C43.2245 64.7486 43.2812 64.7562 43.3347 64.7746C43.3883 64.793 43.4377 64.8218 43.4802 64.8593C43.5226 64.8969 43.5573 64.9424 43.5822 64.9935C43.6072 65.0445 43.6218 65.0999 43.6254 65.1566C43.629 65.2133 43.6214 65.2702 43.6031 65.3239C43.5848 65.3777 43.5561 65.4273 43.5187 65.4699C43.2258 65.8042 42.9369 66.1289 42.6568 66.4446C42.6138 66.4869 42.5624 66.5196 42.5061 66.5407C42.4497 66.5618 42.3895 66.5708 42.3294 66.5671V66.588V66.5888ZM5.3958 64.2213C5.33038 64.2216 5.26574 64.207 5.20679 64.1785C5.14784 64.1501 5.09612 64.1085 5.05555 64.057C4.78416 63.711 4.51956 63.3597 4.26191 63.0033C4.2287 62.9569 4.20493 62.9045 4.19196 62.8489C4.17899 62.7933 4.17707 62.7356 4.18631 62.6793C4.19555 62.6229 4.21578 62.569 4.24582 62.5205C4.27587 62.472 4.31515 62.43 4.36141 62.3967C4.45408 62.3305 4.56909 62.3039 4.68127 62.3226C4.79346 62.3413 4.8937 62.4039 4.96006 62.4966C5.21043 62.839 5.46481 63.1813 5.73203 63.5197C5.78177 63.5835 5.81271 63.6601 5.82135 63.7407C5.82999 63.8213 5.81598 63.9027 5.7809 63.9757C5.74583 64.0487 5.69109 64.1104 5.62289 64.1538C5.55469 64.1972 5.47574 64.2206 5.39499 64.2213H5.3958ZM45.9839 62.3017C45.9024 62.3015 45.8225 62.2783 45.7536 62.2346C45.6847 62.1909 45.6294 62.1285 45.5943 62.0546C45.5591 61.9808 45.5455 61.8985 45.5549 61.8172C45.5644 61.7359 45.5965 61.6589 45.6476 61.5952C45.9189 61.2617 46.1909 60.9282 46.4621 60.5858C46.4976 60.5415 46.5413 60.5046 46.5909 60.4773C46.6405 60.4499 46.695 60.4326 46.7513 60.4264C46.8075 60.4202 46.8645 60.4252 46.9188 60.4411C46.9732 60.457 47.0239 60.4834 47.068 60.519C47.1122 60.5545 47.1489 60.5984 47.1762 60.6482C47.2034 60.698 47.2206 60.7527 47.2268 60.8092C47.233 60.8657 47.228 60.9228 47.2122 60.9774C47.1964 61.0319 47.17 61.0828 47.1346 61.1272L46.3161 62.1414C46.276 62.1911 46.2254 62.2313 46.1679 62.259C46.1105 62.2867 46.0476 62.3013 45.9839 62.3017V62.3017ZM2.32715 59.5201C2.24684 59.5179 2.16873 59.4932 2.10166 59.4488C2.03459 59.4044 1.98122 59.342 1.94759 59.2687C1.74135 58.866 1.54715 58.4632 1.37462 58.0725C1.34049 57.9942 1.33014 57.9075 1.34489 57.8233C1.35964 57.7391 1.39882 57.6611 1.45752 57.5992C1.51622 57.5372 1.59183 57.4941 1.67487 57.4751C1.75791 57.4561 1.84469 57.4622 1.92431 57.4925C2.03104 57.5344 2.11691 57.6166 2.16345 57.7221C2.33197 58.0943 2.51654 58.4841 2.71475 58.87C2.74887 58.9364 2.76533 59.0106 2.76254 59.0853C2.75975 59.1599 2.7378 59.2326 2.69882 59.2963C2.65985 59.36 2.60515 59.4125 2.54004 59.4487C2.47493 59.485 2.4016 59.5037 2.32715 59.5032V59.5201ZM49.4746 57.8864C49.394 57.8864 49.3151 57.8636 49.2467 57.8208C49.1784 57.7779 49.1234 57.7167 49.0879 57.6441C49.0525 57.5714 49.0381 57.4902 49.0463 57.4098C49.0545 57.3293 49.085 57.2527 49.1344 57.1888L49.9272 56.1617C49.9603 56.113 50.003 56.0717 50.0527 56.0401C50.1023 56.0086 50.1578 55.9876 50.2159 55.9784C50.2739 55.9692 50.3332 55.972 50.3901 55.9867C50.447 56.0013 50.5003 56.0275 50.5467 56.0636C50.5932 56.0996 50.6318 56.1449 50.6602 56.1965C50.6886 56.2481 50.7062 56.305 50.7119 56.3636C50.7177 56.4223 50.7114 56.4816 50.6934 56.5377C50.6755 56.5939 50.6463 56.6457 50.6077 56.6902L49.8149 57.7173C49.773 57.7664 49.7208 57.8055 49.6619 57.8318C49.603 57.858 49.539 57.8706 49.4746 57.8687V57.8864V57.8864ZM0.547278 54.2026C0.442691 54.2036 0.341301 54.1665 0.262014 54.098C0.182726 54.0295 0.130955 53.9344 0.116352 53.8304C0.0557865 53.3858 0.016954 52.9385 -6.21588e-06 52.49C-0.00359644 52.431 0.00488574 52.3718 0.0249182 52.3162C0.0449507 52.2606 0.0761096 52.2097 0.116477 52.1666C0.156844 52.1235 0.205566 52.0892 0.259643 52.0658C0.31372 52.0423 0.372008 52.0302 0.43092 52.0302C0.489831 52.0302 0.548119 52.0423 0.602196 52.0658C0.656273 52.0892 0.704995 52.1235 0.745362 52.1666C0.78573 52.2097 0.816889 52.2606 0.836921 52.3162C0.856954 52.3718 0.865436 52.431 0.861846 52.49C0.87629 52.9081 0.912401 53.3246 0.969376 53.7386C0.977059 53.7952 0.973561 53.8527 0.959082 53.9079C0.944602 53.9631 0.919426 54.0148 0.884992 54.0603C0.850558 54.1057 0.807544 54.1438 0.758408 54.1725C0.709272 54.2012 0.654979 54.22 0.598636 54.2276L0.547278 54.2018V54.2026ZM52.9004 53.4188C52.8192 53.4198 52.7395 53.3977 52.6703 53.3552C52.6011 53.3127 52.5452 53.2514 52.5092 53.1785C52.4731 53.1055 52.4583 53.0238 52.4665 52.9428C52.4746 52.8617 52.5054 52.7846 52.5553 52.7204L53.3449 51.6893C53.3792 51.6442 53.4219 51.6063 53.4708 51.5777C53.5196 51.5492 53.5736 51.5306 53.6296 51.523C53.6856 51.5154 53.7425 51.519 53.7972 51.5335C53.8518 51.548 53.903 51.5731 53.948 51.6075C53.9929 51.6419 54.0307 51.6848 54.0591 51.7339C54.0875 51.7829 54.106 51.8371 54.1136 51.8933C54.1212 51.9495 54.1176 52.0066 54.1032 52.0615C54.0887 52.1163 54.0637 52.1678 54.0294 52.2129L53.2326 53.2319C53.1933 53.2833 53.1431 53.3251 53.0856 53.3544C53.0281 53.3837 52.9648 53.3996 52.9004 53.4011V53.4188V53.4188ZM123.911 51.0344C123.871 51.0385 123.83 51.0385 123.79 51.0344C123.736 51.0185 123.685 50.9921 123.641 50.9565C123.597 50.921 123.56 50.8771 123.533 50.8272C123.506 50.7774 123.488 50.7227 123.482 50.6661C123.476 50.6096 123.481 50.5524 123.497 50.4979C123.604 50.116 123.721 49.7004 123.837 49.2541C123.851 49.1989 123.876 49.147 123.91 49.1015C123.944 49.0559 123.986 49.0175 124.035 48.9884C124.084 48.9594 124.138 48.9403 124.194 48.9323C124.25 48.9242 124.308 48.9274 124.363 48.9415C124.418 48.956 124.47 48.9814 124.515 49.0161C124.56 49.0508 124.598 49.0942 124.627 49.1439C124.655 49.1935 124.674 49.2483 124.681 49.3051C124.688 49.3619 124.684 49.4196 124.669 49.4748C124.553 49.9082 124.436 50.3416 124.324 50.7355C124.296 50.8231 124.241 50.8994 124.166 50.9533C124.092 51.0072 124.003 51.0358 123.911 51.0352V51.0344ZM56.3052 48.9464C56.2244 48.9467 56.1451 48.9242 56.0764 48.8814C56.0077 48.8386 55.9524 48.7772 55.9169 48.7043C55.8814 48.6314 55.8671 48.5499 55.8756 48.4692C55.8841 48.3885 55.9151 48.3118 55.965 48.2479L56.7538 47.2168C56.7887 47.1717 56.8321 47.1338 56.8815 47.1055C56.931 47.0772 56.9855 47.0589 57.042 47.0517C57.0985 47.0445 57.1558 47.0486 57.2107 47.0636C57.2657 47.0787 57.3171 47.1045 57.3621 47.1395C57.4071 47.1745 57.4448 47.2181 57.473 47.2677C57.5012 47.3174 57.5194 47.3721 57.5266 47.4288C57.5337 47.4855 57.5297 47.5431 57.5147 47.5982C57.4997 47.6533 57.474 47.7049 57.4391 47.7501L56.6455 48.7772C56.6042 48.8245 56.5532 48.8621 56.496 48.8876C56.4387 48.913 56.3767 48.9257 56.3141 48.9246L56.306 48.9464H56.3052ZM0.995858 48.6386C0.954353 48.6448 0.912178 48.6448 0.870673 48.6386C0.816505 48.6218 0.766167 48.5945 0.722534 48.5581C0.678902 48.5218 0.642829 48.4771 0.616375 48.4268C0.589921 48.3765 0.573605 48.3214 0.568359 48.2647C0.563112 48.208 0.569037 48.1509 0.585796 48.0965C0.713248 47.6709 0.856997 47.2503 1.01672 46.8358C1.03588 46.7804 1.06607 46.7294 1.10545 46.6861C1.14484 46.6427 1.1926 46.6079 1.24583 46.5836C1.29906 46.5594 1.35665 46.5463 1.41508 46.5451C1.47352 46.5439 1.53159 46.5546 1.58576 46.5767C1.63993 46.5987 1.68906 46.6316 1.73017 46.6733C1.77128 46.715 1.80351 46.7647 1.8249 46.8193C1.84628 46.8739 1.85638 46.9323 1.85457 46.991C1.85276 47.0496 1.83909 47.1073 1.81438 47.1604C1.6595 47.5552 1.51746 47.9539 1.38345 48.3478C1.35241 48.4244 1.30016 48.4904 1.23289 48.5381C1.16562 48.5858 1.08615 48.6131 1.00388 48.6169L0.995858 48.6386V48.6386ZM125.204 45.5268C125.177 45.5313 125.149 45.5313 125.122 45.5268C125.01 45.5056 124.911 45.4409 124.846 45.3468C124.781 45.2526 124.757 45.1366 124.777 45.0241C124.855 44.5907 124.928 44.1831 125.001 43.7497C125.007 43.6899 125.025 43.632 125.054 43.5795C125.084 43.527 125.123 43.4811 125.171 43.4446C125.218 43.408 125.273 43.3817 125.331 43.3671C125.389 43.3526 125.449 43.3501 125.508 43.36C125.567 43.3698 125.624 43.3917 125.674 43.4243C125.724 43.4569 125.767 43.4995 125.8 43.5495C125.834 43.5994 125.856 43.6557 125.867 43.7148C125.878 43.7739 125.876 43.8346 125.862 43.8931C125.79 44.3265 125.716 44.7599 125.639 45.1933C125.616 45.2908 125.56 45.3774 125.481 45.4382C125.401 45.4991 125.303 45.5304 125.204 45.5268V45.5268ZM59.7518 44.4739C59.6704 44.4746 59.5905 44.4521 59.5213 44.409C59.4521 44.3659 59.3964 44.304 59.3608 44.2305C59.3252 44.157 59.3111 44.0749 59.3201 43.9936C59.3291 43.9124 59.3608 43.8354 59.4116 43.7715L60.2173 42.7484C60.2527 42.7041 60.2965 42.6672 60.3462 42.6399C60.3959 42.6126 60.4504 42.5953 60.5067 42.5891C60.563 42.583 60.6199 42.588 60.6743 42.6039C60.7287 42.6198 60.7794 42.6464 60.8235 42.682C60.8677 42.7176 60.9044 42.7615 60.9317 42.8114C60.9589 42.8612 60.9761 42.916 60.9822 42.9725C60.9883 43.029 60.9833 43.0862 60.9675 43.1408C60.9516 43.1953 60.9252 43.2462 60.8897 43.2906L60.0881 44.3088C60.0489 44.3588 59.9993 44.3995 59.9427 44.428C59.8861 44.4566 59.824 44.4722 59.7607 44.4739H59.7526H59.7518ZM3.55975 43.6329C3.4805 43.6319 3.40305 43.6091 3.33584 43.567C3.26863 43.5248 3.21425 43.4649 3.17865 43.3938C3.14304 43.3228 3.12757 43.2432 3.13392 43.1639C3.14028 43.0846 3.16822 43.0086 3.21468 42.9442C3.47388 42.5929 3.74913 42.2417 4.0332 41.8994C4.10705 41.8116 4.21263 41.7568 4.3267 41.7471C4.44078 41.7375 4.554 41.7737 4.64147 41.8478C4.72895 41.9219 4.7835 42.0279 4.79313 42.1424C4.80276 42.2569 4.76668 42.3706 4.69283 42.4584C4.42019 42.7815 4.1587 43.1138 3.90882 43.4549C3.86877 43.5101 3.81626 43.5551 3.75559 43.586C3.69491 43.6169 3.6278 43.633 3.55975 43.6329V43.6329ZM63.2699 40.0748C63.1887 40.0739 63.1094 40.0501 63.041 40.0061C62.9727 39.9621 62.9181 39.8997 62.8834 39.826C62.8487 39.7523 62.8355 39.6702 62.845 39.5893C62.8546 39.5084 62.8867 39.4318 62.9376 39.3683L63.761 38.363C63.7961 38.3184 63.8397 38.2812 63.8891 38.2535C63.9386 38.2258 63.993 38.2081 64.0493 38.2016C64.1055 38.195 64.1625 38.1996 64.217 38.2151C64.2715 38.2307 64.3224 38.2568 64.3668 38.2921C64.4113 38.3274 64.4483 38.3711 64.4759 38.4207C64.5035 38.4704 64.5211 38.525 64.5276 38.5815C64.5342 38.638 64.5296 38.6952 64.5141 38.7499C64.4987 38.8046 64.4726 38.8557 64.4375 38.9003L63.6189 39.9016C63.5784 39.9559 63.5256 39.9999 63.465 40.03C63.4044 40.0601 63.3375 40.0754 63.2699 40.0748V40.0748ZM125.962 39.9451H125.927C125.814 39.936 125.708 39.8821 125.634 39.7952C125.56 39.7082 125.523 39.5953 125.531 39.4811C125.566 39.0477 125.591 38.6143 125.617 38.1809C125.617 38.1222 125.629 38.0641 125.652 38.0101C125.675 37.9561 125.708 37.9073 125.751 37.8668C125.793 37.8263 125.843 37.7948 125.898 37.7743C125.953 37.7538 126.011 37.7447 126.07 37.7475C126.306 37.762 126.487 37.965 126.475 38.2027C126.453 38.6365 126.424 39.0699 126.389 39.5028C126.39 39.5601 126.38 39.617 126.359 39.6703C126.338 39.7236 126.307 39.7722 126.267 39.8133C126.228 39.8544 126.18 39.8873 126.128 39.9099C126.075 39.9325 126.019 39.9445 125.962 39.9451V39.9451ZM7.44691 39.5769C7.35711 39.5777 7.26931 39.5503 7.19578 39.4986C7.12225 39.4468 7.06667 39.3733 7.03679 39.2883C7.00691 39.2033 7.00423 39.111 7.02913 39.0244C7.05403 38.9378 7.10527 38.8612 7.17567 38.8052C7.81765 38.2848 8.23172 38.0077 8.24857 37.9948C8.34413 37.9318 8.46072 37.9095 8.57269 37.9327C8.68465 37.956 8.78283 38.023 8.84561 38.1189C8.90839 38.2148 8.93065 38.3319 8.90747 38.4443C8.88429 38.5566 8.81759 38.6552 8.72203 38.7182C8.72203 38.7182 8.3216 38.9873 7.71894 39.4771C7.64017 39.5429 7.54057 39.5783 7.43808 39.5769H7.44691V39.5769ZM66.8898 35.7586C66.8075 35.7581 66.727 35.7339 66.658 35.6889C66.5889 35.644 66.5341 35.5801 66.5001 35.5048C66.4661 35.4296 66.4543 35.3461 66.466 35.2643C66.4778 35.1825 66.5126 35.1058 66.5664 35.0433C66.8473 34.7146 67.1313 34.3851 67.4283 34.0605C67.4657 34.0179 67.5111 33.983 67.5619 33.958C67.6127 33.933 67.6679 33.9183 67.7244 33.9147C67.7809 33.9111 67.8375 33.9187 67.8911 33.9371C67.9446 33.9555 67.9941 33.9843 68.0365 34.0218C68.079 34.0594 68.1137 34.105 68.1386 34.156C68.1635 34.207 68.1782 34.2624 68.1818 34.3191C68.1853 34.3758 68.1778 34.4327 68.1595 34.4864C68.1411 34.5402 68.1125 34.5898 68.0751 34.6324C67.7902 34.9571 67.5053 35.2817 67.2132 35.6112C67.1719 35.6586 67.1207 35.6963 67.0633 35.7218C67.0059 35.7472 66.9437 35.7598 66.881 35.7586H66.889H66.8898ZM126.065 34.311C125.956 34.3112 125.85 34.2692 125.77 34.1936C125.689 34.1179 125.641 34.0144 125.635 33.9042C125.609 33.4704 125.578 33.0369 125.54 32.6041C125.531 32.5455 125.535 32.4859 125.55 32.4288C125.565 32.3716 125.592 32.3182 125.628 32.2718C125.665 32.2254 125.71 32.1869 125.762 32.1587C125.814 32.1306 125.871 32.1133 125.93 32.108C125.988 32.1026 126.047 32.1094 126.103 32.1278C126.159 32.1462 126.211 32.1759 126.255 32.215C126.299 32.2541 126.335 32.3018 126.36 32.3553C126.386 32.4088 126.4 32.4668 126.402 32.5259C126.44 32.9593 126.475 33.3927 126.496 33.8261C126.496 34.0557 126.319 34.245 126.091 34.2595L126.065 34.311V34.311ZM70.6438 31.5592C70.5597 31.5592 70.4776 31.5346 70.4073 31.4883C70.3371 31.442 70.2818 31.3761 70.2484 31.2988C70.215 31.2214 70.2048 31.1359 70.2192 31.0528C70.2335 30.9697 70.2718 30.8926 70.3292 30.831C70.6221 30.5104 70.919 30.1946 71.2167 29.8821C71.2951 29.7989 71.4033 29.7503 71.5174 29.7472C71.6314 29.744 71.7421 29.7864 71.825 29.8652C71.9079 29.9439 71.9562 30.0525 71.9594 30.167C71.9625 30.2815 71.9203 30.3926 71.8418 30.4758L70.98 31.4207C70.9356 31.4693 70.8806 31.507 70.8194 31.531C70.7582 31.5551 70.6924 31.5647 70.6269 31.5592H70.6429H70.6438ZM125.285 28.7382C125.187 28.741 125.09 28.7099 125.012 28.6499C124.934 28.59 124.878 28.5048 124.855 28.4087C124.76 27.9934 124.651 27.5815 124.527 27.1738C124.504 27.0669 124.522 26.9553 124.578 26.8612C124.633 26.7671 124.722 26.6974 124.826 26.6662C124.931 26.635 125.043 26.6444 125.141 26.6927C125.239 26.7409 125.315 26.8244 125.354 26.9265C125.475 27.3599 125.591 27.7723 125.695 28.2049C125.708 28.2604 125.71 28.318 125.702 28.3744C125.693 28.4308 125.673 28.4849 125.643 28.5336C125.614 28.5823 125.575 28.6247 125.529 28.6583C125.483 28.6919 125.431 28.716 125.375 28.7293L125.285 28.7374V28.7382ZM74.5526 27.5202C74.4671 27.5201 74.3835 27.4945 74.3125 27.4466C74.2415 27.3987 74.1864 27.3307 74.154 27.2513C74.1217 27.1718 74.1136 27.0845 74.1308 27.0004C74.1481 26.9163 74.1899 26.8393 74.2509 26.7791L75.1857 25.8688C75.2666 25.7873 75.3764 25.7414 75.491 25.7412C75.6056 25.7409 75.7156 25.7864 75.7968 25.8676C75.878 25.9488 75.9237 26.059 75.924 26.1741C75.9242 26.2891 75.8789 26.3995 75.798 26.481C75.4875 26.7751 75.1817 27.0779 74.8712 27.3816C74.8286 27.4279 74.7764 27.4643 74.7183 27.4882C74.6602 27.5122 74.5976 27.5231 74.5349 27.5202H74.5526V27.5202ZM78.6773 23.6978C78.5895 23.698 78.5038 23.6713 78.4316 23.6213C78.3594 23.5713 78.3041 23.5004 78.2731 23.4179C78.2421 23.3355 78.2369 23.2456 78.2583 23.1601C78.2796 23.0747 78.3264 22.9978 78.3924 22.9398L79.3834 22.073C79.4271 22.0364 79.4775 22.0087 79.5317 21.9916C79.586 21.9745 79.6431 21.9683 79.6998 21.9733C79.7565 21.9784 79.8116 21.9946 79.862 22.021C79.9125 22.0475 79.9572 22.0836 79.9937 22.1274C80.0302 22.1712 80.0578 22.2218 80.0748 22.2763C80.0919 22.3308 80.0981 22.3881 80.093 22.445C80.088 22.5019 80.0719 22.5572 80.0455 22.6078C80.0192 22.6585 79.9832 22.7034 79.9396 22.74C79.6121 23.0139 79.2839 23.2951 78.9565 23.577C78.8767 23.6541 78.7704 23.6974 78.6596 23.6978H78.6765H78.6773ZM122.971 23.2346C122.773 22.8576 122.566 22.4847 122.346 22.1246C122.313 22.076 122.29 22.0211 122.279 21.9633C122.267 21.9055 122.268 21.846 122.28 21.7884C122.293 21.7308 122.317 21.6764 122.351 21.6285C122.385 21.5806 122.429 21.5402 122.479 21.5097C122.529 21.4793 122.585 21.4595 122.643 21.4515C122.701 21.4435 122.76 21.4475 122.817 21.4633C122.874 21.4791 122.926 21.5063 122.972 21.5433C123.018 21.5803 123.055 21.6262 123.083 21.6783C123.311 22.0513 123.514 22.4412 123.734 22.8311C123.768 22.8973 123.786 22.9715 123.784 23.0464C123.781 23.1214 123.76 23.1945 123.721 23.2586C123.683 23.3228 123.628 23.3758 123.563 23.4125C123.498 23.4493 123.425 23.4685 123.35 23.4683C123.272 23.4675 123.195 23.4454 123.128 23.4043C123.061 23.3631 123.007 23.3045 122.971 23.2346V23.2346ZM83.0555 20.1832C82.9641 20.1838 82.8747 20.1553 82.8004 20.1018C82.7261 20.0483 82.6706 19.9725 82.6419 19.8853C82.6132 19.7981 82.6127 19.704 82.6406 19.6166C82.6685 19.5291 82.7233 19.4528 82.7971 19.3986C83.1502 19.1392 83.5033 18.8879 83.8564 18.6365C83.9184 18.5925 83.9909 18.5658 84.0666 18.559C84.1422 18.5522 84.2183 18.5656 84.2872 18.5978C84.356 18.63 84.4151 18.6799 84.4586 18.7424C84.502 18.805 84.5282 18.8779 84.5345 18.9539C84.541 19.0297 84.5276 19.1059 84.4957 19.1749C84.4637 19.2439 84.4143 19.3032 84.3523 19.347L83.3091 20.0962C83.2312 20.1553 83.1355 20.1859 83.0379 20.1832H83.0555V20.1832ZM120.075 18.9265C120.018 18.9263 119.962 18.9147 119.909 18.8924C119.857 18.8702 119.809 18.8377 119.769 18.7968C119.481 18.5076 119.175 18.2193 118.851 17.9301C118.809 17.8926 118.774 17.847 118.749 17.796C118.724 17.745 118.709 17.6896 118.706 17.6329C118.702 17.5762 118.71 17.5194 118.728 17.4656C118.746 17.4118 118.775 17.3621 118.812 17.3194C118.849 17.2768 118.895 17.2419 118.945 17.2168C118.996 17.1917 119.051 17.1769 119.108 17.1732C119.164 17.1696 119.221 17.1771 119.275 17.1954C119.328 17.2137 119.378 17.2425 119.42 17.28C119.748 17.57 120.07 17.8777 120.381 18.1943C120.461 18.2756 120.506 18.3855 120.506 18.5C120.506 18.6145 120.461 18.7244 120.381 18.8057C120.338 18.8471 120.287 18.8792 120.232 18.9C120.176 18.9208 120.117 18.9298 120.057 18.9265H120.075ZM87.7524 17.0899C87.6574 17.0905 87.5649 17.0597 87.4892 17.0021C87.4135 16.9445 87.3589 16.8635 87.3338 16.7715C87.3087 16.6795 87.3146 16.5818 87.3505 16.4936C87.3865 16.4053 87.4505 16.3315 87.5325 16.2835C87.9121 16.062 88.2917 15.8501 88.6704 15.6415C88.7367 15.6031 88.8119 15.583 88.8884 15.5832C88.9649 15.5834 89.0399 15.6039 89.106 15.6427C89.172 15.6815 89.2266 15.7372 89.2643 15.804C89.302 15.8709 89.3213 15.9465 89.3204 16.0233C89.3201 16.0999 89.2996 16.1751 89.2612 16.2413C89.2227 16.3074 89.1676 16.3623 89.1013 16.4003C88.7266 16.6041 88.3558 16.8337 87.9859 17.0327C87.9028 17.082 87.8056 17.1019 87.7099 17.0891H87.7524V17.0899ZM115.628 15.5641C115.555 15.5644 115.483 15.5449 115.421 15.5078C115.059 15.308 114.679 15.113 114.292 14.931C114.188 14.8816 114.108 14.793 114.07 14.6845C114.031 14.576 114.037 14.4566 114.086 14.3526C114.135 14.2485 114.224 14.1684 114.332 14.1297C114.44 14.091 114.559 14.097 114.662 14.1464C115.063 14.3373 115.455 14.5411 115.834 14.7489C115.919 14.7947 115.986 14.8676 116.025 14.9561C116.064 15.0447 116.072 15.1437 116.048 15.2374C116.025 15.3312 115.97 15.4143 115.894 15.4735C115.818 15.5327 115.724 15.5646 115.628 15.5641V15.5641ZM92.7654 14.6015C92.6643 14.6028 92.566 14.5684 92.4877 14.5043C92.4093 14.4401 92.3559 14.3504 92.3368 14.2508C92.3177 14.1512 92.3341 14.0479 92.3831 13.9592C92.4321 13.8705 92.5106 13.8018 92.6049 13.7653C93.0102 13.601 93.4154 13.4447 93.8247 13.2973C93.9323 13.2582 94.0509 13.2636 94.1545 13.3123C94.2581 13.3611 94.3382 13.4491 94.3772 13.5571C94.4161 13.6651 94.4107 13.7842 94.3622 13.8882C94.3137 13.9922 94.226 14.0726 94.1184 14.1117C93.7212 14.2551 93.3247 14.4066 92.9283 14.5709C92.8656 14.5966 92.7977 14.6071 92.7301 14.6015H92.7646H92.7654ZM110.456 13.4318C110.414 13.436 110.372 13.436 110.331 13.4318C109.925 13.311 109.512 13.1982 109.103 13.1016C108.994 13.0692 108.902 12.9965 108.845 12.8982C108.788 12.7999 108.771 12.6835 108.797 12.5728C108.823 12.4621 108.89 12.3655 108.984 12.3029C109.079 12.2402 109.194 12.2161 109.305 12.2356C109.736 12.3395 110.167 12.4523 110.598 12.5779C110.712 12.594 110.816 12.655 110.886 12.7476C110.955 12.8402 110.985 12.9568 110.969 13.0717C110.953 13.1867 110.893 13.2906 110.8 13.3605C110.708 13.4305 110.592 13.4607 110.478 13.4447L110.456 13.4318V13.4318ZM98.0529 12.9509C97.9427 12.9573 97.8343 12.921 97.75 12.8495C97.6657 12.778 97.6119 12.6768 97.5998 12.5666C97.5876 12.4565 97.618 12.3459 97.6847 12.2577C97.7514 12.1694 97.8493 12.1102 97.9582 12.0922C98.3891 12.006 98.82 11.923 99.2502 11.8586C99.326 11.8466 99.4036 11.8549 99.4752 11.8827C99.5468 11.9105 99.6098 11.9567 99.6579 12.0168C99.7059 12.0769 99.7373 12.1487 99.7489 12.2249C99.7604 12.3011 99.7517 12.379 99.7236 12.4507C99.6959 12.5222 99.6499 12.5851 99.5904 12.6331C99.5308 12.6812 99.4597 12.7127 99.3842 12.7246C98.9533 12.7906 98.5528 12.8679 98.1347 12.9549C98.1074 12.9575 98.0799 12.9561 98.0529 12.9509V12.9509ZM104.918 12.4652H104.888C104.466 12.4387 104.043 12.4226 103.62 12.4168C103.509 12.412 103.404 12.3643 103.327 12.2836C103.25 12.2029 103.207 12.0956 103.207 11.9838C103.207 11.8721 103.25 11.7647 103.327 11.6841C103.404 11.6034 103.509 11.5557 103.62 11.5509C104.051 11.5509 104.482 11.5726 104.935 11.5992C105.047 11.6061 105.152 11.6564 105.227 11.7395C105.303 11.8227 105.343 11.9321 105.34 12.0447C105.337 12.1572 105.29 12.2641 105.209 12.3425C105.129 12.421 105.021 12.465 104.909 12.4652H104.917H104.918Z" fill="#E6E6E6"/>
<path d="M96.1735 80.7336H46.6604L56.4393 0.638805H100.595L105.207 6.76183L96.1735 80.7336Z" fill="#39475F"/>
<path d="M90.817 80.7336H41.2991L51.078 0.638805H100.595L90.817 80.7336Z" fill="#61728D"/>
<path d="M88.3775 65.5352H47.0054L54.0599 7.78086H95.4329L88.3775 65.5352Z" fill="#181F27"/>
<path d="M74.4234 40.3221L86.3778 40.4647L86.1451 42.3239L74.4234 42.1209V40.3221Z" fill="#1E252E"/>
<path d="M41.2991 80.7336L47.255 86.2629L95.4328 87L96.1735 80.7336H41.2991Z" fill="#39475F"/>
<path d="M79.5215 23.4078C79.5215 23.4078 81.5854 23.5553 82.6415 27.4598C83.6975 31.3643 83.3356 42.2635 83.3356 42.2635L74.4314 42.1209C74.4314 42.1209 69.9882 25.8994 79.5215 23.4078V23.4078Z" fill="#2D394B"/>
<path d="M4.34938 26.4569L36.7354 0L53.7317 21.0403L21.3481 47.4956L4.34938 26.4569Z" fill="#FC7614"/>
<path d="M22.0599 17.6666L36.5605 5.82095L39.3667 9.29531L24.8661 21.1418L22.0599 17.6666Z" fill="white"/>
<path opacity="0.46" d="M20.28 36.391L24.5636 32.8908C24.7904 32.7056 25.0513 32.5671 25.3315 32.4832C25.6117 32.3993 25.9056 32.3717 26.1964 32.4019C26.4872 32.4322 26.7693 32.5196 27.0264 32.6594C27.2835 32.7991 27.5106 32.9884 27.6948 33.2163C28.0676 33.6772 28.2428 34.2679 28.1821 34.8585C28.1213 35.4491 27.8294 35.9913 27.3706 36.366L23.087 39.8653C22.8602 40.0507 22.5992 40.1893 22.3189 40.2732C22.0387 40.3572 21.7447 40.3849 21.4538 40.3546C21.1629 40.3244 20.8808 40.2369 20.6236 40.0971C20.3664 39.9573 20.1392 39.7679 19.955 39.5399C19.5823 39.0788 19.4072 38.4881 19.4681 37.8975C19.5291 37.3069 19.8211 36.7648 20.28 36.3902V36.391ZM29.9562 28.4885L43.5099 17.4177C43.7367 17.2325 43.9976 17.094 44.2778 17.0101C44.558 16.9262 44.8519 16.8986 45.1427 16.9288C45.4335 16.9591 45.7155 17.0465 45.9727 17.1863C46.2298 17.326 46.4569 17.5152 46.6411 17.7432C47.0136 18.2042 47.1885 18.7947 47.1276 19.3851C47.0666 19.9755 46.7748 20.5175 46.3161 20.8921L32.7648 31.9636C32.538 32.149 32.277 32.2876 31.9967 32.3716C31.7165 32.4555 31.4225 32.4832 31.1316 32.4529C30.8407 32.4227 30.5585 32.3352 30.3014 32.1954C30.0442 32.0556 29.817 31.8662 29.6328 31.6382C29.2601 31.1771 29.085 30.5864 29.1459 29.9958C29.2069 29.4052 29.4989 28.8631 29.9578 28.4885H29.9562Z" fill="white"/>
<path opacity="0.3" d="M14.3939 30.0601C16.0217 30.0601 17.3414 28.7329 17.3414 27.0957C17.3414 25.4585 16.0217 24.1312 14.3939 24.1312C12.766 24.1312 11.4464 25.4585 11.4464 27.0957C11.4464 28.7329 12.766 30.0601 14.3939 30.0601Z" fill="white"/>
<path opacity="0.3" d="M17.3847 27.3599C19.0125 27.3599 20.3322 26.0327 20.3322 24.3954C20.3322 22.7582 19.0125 21.431 17.3847 21.431C15.7568 21.431 14.4372 22.7582 14.4372 24.3954C14.4372 26.0327 15.7568 27.3599 17.3847 27.3599Z" fill="white"/>
<path d="M79.5215 23.4078C79.5215 23.4078 74.8367 25.1019 76.4697 38.3759C77.6678 48.1013 73.6209 60.9765 67.6393 61.1328C61.6577 61.2883 50.6254 60.7598 50.6254 60.7598C50.6254 60.7598 56.3702 45.8087 55.1802 33.2541C54.9974 31.4965 55.2066 29.72 55.7925 28.0535C56.4906 26.1419 57.7882 24.153 60.2012 23.8283C65.0193 23.1694 79.5215 23.4078 79.5215 23.4078V23.4078Z" fill="#BAD6FA"/>
<path d="M47.3112 61.7297L68.4498 61.2971C68.4498 61.2971 65.2263 58.0814 65.0233 49.8953L35.9466 50.3287C36.4449 52.4405 37.2111 54.4793 38.2264 56.3953C39.103 58.0392 40.4155 59.4076 42.0187 60.3492C43.6219 61.2908 45.4533 61.7689 47.3104 61.7305L47.3112 61.7297Z" fill="#546F8D"/>
<path d="M62.7611 11.9496L62.0244 16.816H83.387L84.0338 11.9496H62.7611Z" fill="#2D394B"/>
<path opacity="0.48" d="M68.6432 69.4308C66.3385 67.4032 62.6921 67.802 61.0631 70.4152C60.6519 71.0504 60.4292 71.79 60.4211 72.5475C60.4211 75.7536 62.6231 77.8561 67.023 76.9716C70.3806 76.2958 71.6605 72.0795 68.644 69.4316L68.6432 69.4308Z" fill="white"/>
<path d="M118.114 77.6386C124.678 77.6386 130 72.2875 130 65.6866C130 59.0857 124.678 53.7346 118.114 53.7346C111.549 53.7346 106.228 59.0857 106.228 65.6866C106.228 72.2875 111.549 77.6386 118.114 77.6386Z" fill="#FC7614"/>
<path d="M59.1668 28.7986C59.1102 28.8006 59.0536 28.7914 59.0005 28.7715C58.9473 28.7516 58.8986 28.7213 58.8571 28.6825C58.7733 28.6041 58.7239 28.4955 58.7199 28.3805C58.7158 28.2656 58.7574 28.1537 58.8355 28.0696C58.9136 27.9854 59.0219 27.9359 59.1364 27.9318C59.227 27.9318 68.2388 27.2648 73.0696 27.6982C73.1841 27.7085 73.2899 27.764 73.3636 27.8525C73.4374 27.941 73.4731 28.0553 73.4628 28.1703C73.4526 28.2852 73.3973 28.3914 73.3092 28.4654C73.221 28.5394 73.1071 28.5753 72.9926 28.565C68.2516 28.1316 59.2872 28.7857 59.2014 28.7946L59.1668 28.7986ZM58.4518 34.6622C58.3951 34.6643 58.3386 34.655 58.2855 34.6351C58.2323 34.6152 58.1836 34.585 58.1421 34.5461C58.0583 34.4677 58.0089 34.3591 58.0049 34.2442C58.0008 34.1292 58.0424 34.0174 58.1205 33.9332C58.1986 33.8491 58.3069 33.7995 58.4214 33.7955C58.512 33.7955 67.523 33.1285 72.3546 33.5619C72.4113 33.567 72.4665 33.5833 72.5169 33.6098C72.5673 33.6363 72.612 33.6725 72.6485 33.7164C72.685 33.7603 72.7125 33.8109 72.7295 33.8655C72.7464 33.92 72.7526 33.9774 72.7474 34.0343C72.7423 34.0912 72.7261 34.1466 72.6997 34.1972C72.6733 34.2478 72.6372 34.2927 72.5935 34.3293C72.5498 34.3659 72.4993 34.3936 72.445 34.4106C72.3906 34.4276 72.3335 34.4338 72.2768 34.4286C67.5366 33.9952 58.5762 34.6542 58.4864 34.6582L58.4518 34.6622ZM58.37 40.7555C58.2555 40.7601 58.1439 40.7188 58.0597 40.6408C57.9755 40.5628 57.9256 40.4543 57.921 40.3394C57.9164 40.2245 57.9575 40.1124 58.0353 40.0279C58.113 39.9434 58.221 39.8933 58.3355 39.8887C58.4254 39.8887 67.4411 39.2209 72.268 39.6551C72.3793 39.6692 72.4808 39.7261 72.5511 39.8138C72.6215 39.9015 72.6553 40.0132 72.6453 40.1253C72.6353 40.2375 72.5824 40.3414 72.4976 40.4152C72.4129 40.489 72.303 40.527 72.1909 40.5211C67.4499 40.0877 58.4904 40.7466 58.3997 40.7514L58.37 40.7555V40.7555ZM57.7962 46.8487C57.6817 46.8526 57.5704 46.8108 57.4866 46.7323C57.4029 46.6538 57.3536 46.5451 57.3497 46.4302C57.3457 46.3153 57.3874 46.2035 57.4656 46.1194C57.5438 46.0353 57.652 45.9859 57.7665 45.9819C57.8564 45.9819 66.8681 45.3141 71.699 45.7523C71.7557 45.7574 71.8109 45.7736 71.8613 45.8001C71.9117 45.8266 71.9565 45.8628 71.993 45.9066C72.0295 45.9504 72.0571 46.0011 72.0741 46.0556C72.0911 46.1101 72.0973 46.1675 72.0922 46.2244C72.0872 46.2813 72.071 46.3367 72.0446 46.3873C72.0182 46.4379 71.9822 46.4829 71.9385 46.5195C71.8949 46.5562 71.8444 46.5838 71.7901 46.6009C71.7358 46.618 71.6787 46.6242 71.622 46.6191C66.881 46.1857 57.9214 46.8447 57.8307 46.8487H57.7962V46.8487Z" fill="white"/>
</g>
<defs>
<clipPath id="clip0_2_2">
<rect width="130" height="87" fill="white"/>
</clipPath>
</defs>
</svg>
